<svg width="1064" height="567" viewBox="0 0 1064 567" fill="none" xmlns="http://www.w3.org/2000/svg">
<path d="M465.76 103.138C341.436 92.4205 249.621 32.5804 219.255 4C-67.9779 166.908 -11.1745 409.484 53.1313 510.408C91.7148 428.954 190.674 455.034 235.331 478.255C398.239 394.658 506.844 500.584 540.784 563.996C600.802 407.519 767.64 441.637 843.557 478.255C922.867 428.954 990.924 479.148 1015.04 510.408C1147.94 251.041 970.382 64.7333 864.992 4C747.098 76.8799 639.029 100.459 599.731 103.138L578.295 4L551.501 60.2676H511.31L481.837 4L465.76 103.138Z" fill="#0A0A0A" stroke="black" stroke-width="2"/>
<path d="M861.09 137.97L834.296 154.047C834.296 128.325 812.861 93.3136 802.143 79.0234C821.435 76.8799 849.479 58.4813 861.09 49.5499C959.692 83.8464 987.915 144.222 989.702 170.123L922.716 137.97L949.396 447.455C949.442 447.892 949.481 448.334 949.511 448.782L949.396 447.455C946.113 416.506 901.863 412.188 879.846 413.949C888.42 351.787 870.915 204.062 861.09 137.97Z" fill="#FEEC02" stroke="black" stroke-width="2"/>
<path d="M684.249 416.629L703.005 121.894L780.708 87.0619C810.717 114.928 814.647 148.688 812.861 162.085C789.282 153.511 761.952 165.658 751.234 172.803V221.032H812.861L802.143 279.979H743.196V336.247H812.861V427.347C750.698 386.62 701.219 403.232 684.249 416.629Z" fill="#FEEC02" stroke="black" stroke-width="2"/>
<path d="M397.552 178.161V127.253C453.284 152.975 497.584 146.902 512.767 140.65V186.2L480.614 178.161L469.896 446.102C457.035 416.093 425.24 410.377 410.949 411.27L421.667 178.161H397.552Z" fill="#FEEC02" stroke="black" stroke-width="2"/>
<path d="M577.073 443.423L526.164 140.65H577.073L606.546 296.056L625.302 132.612L681.57 121.894L644.058 408.591C616.192 410.734 587.79 432.706 577.073 443.423Z" fill="#FEEC02" stroke="black" stroke-width="2"/>
<path d="M65.3058 446.102C-22.5788 248.898 126.932 106.711 212.673 60.2675L279.658 100.459C326.816 154.047 254.651 213.887 212.673 237.108C239.467 397.553 159.085 419.308 134.97 419.308C115.679 419.308 80.4891 437.171 65.3058 446.102Z" fill="#FEEC02" stroke="black" stroke-width="2"/>
<path d="M226.07 430.026L185.879 419.308L325.208 113.855L378.797 129.932V403.231C350.931 401.088 324.315 413.056 314.491 419.308L306.453 333.567H287.697L255.544 419.308L226.07 430.026Z" fill="#FEEC02" stroke="black" stroke-width="2"/>
<path d="M87.2841 384.476C82.997 324.457 105.147 270.154 116.758 250.505L154.269 277.299C167.13 345.892 143.552 377.331 130.155 384.476C104.432 395.193 90.8566 388.941 87.2841 384.476Z" fill="#0A0A0A" stroke="black" stroke-width="2"/>
<path d="M204.635 111.177C187.665 126.36 147.832 169.052 124.253 218.353C164.444 221.032 236.788 203.348 204.635 111.177Z" fill="#0A0A0A" stroke="black" stroke-width="2"/>
<path d="M295.735 298.735L322.529 218.352V298.735H295.735Z" fill="#0A0A0A" stroke="black" stroke-width="2"/>
</svg>
